<?xml version="1.0" encoding="utf-8"?>
<!-- Generator: Adobe Illustrator 22.0.1, SVG Export Plug-In . SVG Version: 6.00 Build 0)  -->
<svg version="1.1" id="Ebene_1" xmlns="http://www.w3.org/2000/svg" xmlns:xlink="http://www.w3.org/1999/xlink" x="0px" y="0px"
	 viewBox="0 0 149.9 15.3" style="enable-background:new 0 0 149.9 15.3;" xml:space="preserve">
<style type="text/css">
	.st0{fill:#FFFFFF;}
</style>
<g>
	<path class="st0" d="M4.2,0.2c1,0,2,0.2,2.9,0.6C8,1.2,8.7,1.7,9.4,2.4c0.7,0.7,1.2,1.5,1.6,2.4c0.4,0.9,0.6,1.9,0.6,2.9
		c0,1-0.2,2-0.6,2.9c-0.4,0.9-0.9,1.7-1.6,2.3c-0.7,0.7-1.5,1.2-2.3,1.6C6.2,14.8,5.2,15,4.2,15h-3v0H0V0.2H4.2z M4.2,12.1
		c2.5,0,4.4-2,4.4-4.5c0-2.5-2-4.4-4.4-4.4H3v8.9H4.2z"/>
	<path class="st0" d="M23.8,3.2h-9.9v-3h9.9V3.2z M13.9,5.9h8.2v3h-8.2V5.9z M13.9,12.1h9.8v3h-9.8V12.1z"/>
	<path class="st0" d="M37.9,15l-8.3-8.7V15h-3V0.2h0.9l8.2,8.3V0.2h3V15H37.9z"/>
	<path class="st0" d="M52.7,15l-8.3-8.7V15h-3V0.2h0.9l8.2,8.3V0.2h3V15H52.7z"/>
	<path class="st0" d="M56.2,15V0.2h3V15H56.2z"/>
	<path class="st0" d="M66.7,8.8c-0.5-0.1-1.4-0.4-2.2-0.9c-1.2-0.8-1.8-1.9-1.9-3.3c-0.1-1.2,0.3-2.2,1.1-3C64.7,0.3,66.3,0,67,0
		c2.2,0,3.4,0.8,4.4,1.5L72,1.8l-1.5,2.5L69.9,4c-1-0.6-1.6-1-2.9-1c-0.2,0-0.9,0.1-1.3,0.6c-0.1,0.1-0.3,0.4-0.3,0.8
		c0,0.8,0.6,1.2,1.9,1.5c0.2,0,0.3,0.1,0.4,0.1c1.4,0.5,2.5,1.1,3.3,2c0.8,0.8,1.2,1.8,1.2,2.9c0,1-0.4,2.1-1.2,2.9
		c-0.9,1-2.1,1.5-3.4,1.5c-0.7,0-1.5,0-2.6-0.4c-1.3-0.4-2.5-1.2-3.5-2.2l2.2-2c1.6,1.7,3.3,1.7,4,1.7c1.2,0,1.6-1.1,1.6-1.5
		c0-0.8-0.9-1.5-2.5-2.1l-0.1,0L66.7,8.8z"/>
	<path class="st0" d="M84.2,3.2h-6.9v2.7H83v3h-5.7V15h-3V0.2h9.9V3.2z"/>
	<path class="st0" d="M86.7,15V0.2h3V15H86.7z"/>
	<path class="st0" d="M103.7,15l-8.3-8.7V15h-3V0.2h0.9l8.2,8.3V0.2h3V15H103.7z"/>
	<path class="st0" d="M111.3,8.2l-1.1,1.2V15h-3V0.2h3V5l4.3-4.8h4L113.3,6l5.3,9h-3.5L111.3,8.2z"/>
	<path class="st0" d="M121,15v-2.8h2.8V15H121z"/>
	<path class="st0" d="M130.3,0.2c1,0,2,0.2,2.9,0.6c0.9,0.4,1.7,0.9,2.3,1.6c0.7,0.7,1.2,1.5,1.6,2.4c0.4,0.9,0.6,1.9,0.6,2.9
		c0,1-0.2,2-0.6,2.9c-0.4,0.9-0.9,1.7-1.6,2.3c-0.7,0.7-1.5,1.2-2.3,1.6c-0.9,0.4-1.9,0.6-2.9,0.6h-3v0h-1.2V0.2H130.3z M130.3,12.1
		c2.5,0,4.4-2,4.4-4.5c0-2.5-2-4.4-4.4-4.4H129v8.9H130.3z"/>
	<path class="st0" d="M149.9,3.2H140v-3h9.9V3.2z M140,5.9h8.2v3H140V5.9z M140,12.1h9.8v3H140V12.1z"/>
</g>
</svg>
